<svg xmlns="http://www.w3.org/2000/svg" width="1200" height="520" viewBox="0 0 1200 520" role="img" aria-labelledby="title desc">
  <title id="title">Book Genesis proof gallery</title>
  <desc id="desc">Stylized shelf of books generated and tested through the Book Genesis pipeline.</desc>
  <rect width="1200" height="520" fill="#0b1220"/>
  <text x="64" y="72" fill="#ffffff" font-family="Inter,Segoe UI,Arial,sans-serif" font-size="44" font-weight="900">Proof gallery: books pushed through the loop</text>
  <text x="64" y="112" fill="#cbd5e1" font-family="Inter,Segoe UI,Arial,sans-serif" font-size="22" font-weight="600">Public artifacts, covers, case studies, and market diagnostics. Manuscripts stay private.</text>
  <g transform="translate(70 170)" filter="drop-shadow(0 16px 22px rgba(0,0,0,.35))" font-family="Inter,Segoe UI,Arial,sans-serif">
    <g transform="translate(0 0)">
      <rect width="86" height="250" rx="8" fill="#cf3f45"/>
      <text x="43" y="222" transform="rotate(-90 43 222)" fill="#fff8e6" font-size="15" font-weight="900" text-anchor="middle">PROTOCOLO NAO ENCONTRADO</text>
    </g>
    <g transform="translate(104 -32)">
      <rect width="88" height="282" rx="8" fill="#1d4ed8"/>
      <text x="44" y="250" transform="rotate(-90 44 250)" fill="#e8efff" font-size="16" font-weight="900" text-anchor="middle">AGE OF AQUARIUS</text>
    </g>
    <g transform="translate(210 18)">
      <rect width="84" height="232" rx="8" fill="#991b1b"/>
      <text x="42" y="205" transform="rotate(-90 42 205)" fill="#fff1f2" font-size="15" font-weight="900" text-anchor="middle">PROTOCOLO VERMELHO</text>
    </g>
    <g transform="translate(312 -12)">
      <rect width="92" height="262" rx="8" fill="#0f766e"/>
      <text x="46" y="232" transform="rotate(-90 46 232)" fill="#ecfeff" font-size="16" font-weight="900" text-anchor="middle">THE SOURCE CODE</text>
    </g>
    <g transform="translate(422 8)">
      <rect width="86" height="242" rx="8" fill="#7c3aed"/>
      <text x="43" y="215" transform="rotate(-90 43 215)" fill="#f5f3ff" font-size="15" font-weight="900" text-anchor="middle">SOURCE CODE V2</text>
    </g>
    <g transform="translate(526 -42)">
      <rect width="90" height="292" rx="8" fill="#d97706"/>
      <text x="45" y="260" transform="rotate(-90 45 260)" fill="#fffbeb" font-size="15" font-weight="900" text-anchor="middle">THE TRUMPET PROTOCOL</text>
    </g>
    <g transform="translate(634 26)">
      <rect width="82" height="224" rx="8" fill="#334155"/>
      <text x="41" y="198" transform="rotate(-90 41 198)" fill="#f8fafc" font-size="14" font-weight="900" text-anchor="middle">SEVENTH MANUSCRIPT</text>
    </g>
    <g transform="translate(734 -22)">
      <rect width="88" height="272" rx="8" fill="#475569"/>
      <text x="44" y="240" transform="rotate(-90 44 240)" fill="#f8fafc" font-size="16" font-weight="900" text-anchor="middle">IRON CORE</text>
    </g>
    <g transform="translate(840 22)">
      <rect width="86" height="228" rx="8" fill="#0891b2"/>
      <text x="43" y="202" transform="rotate(-90 43 202)" fill="#ecfeff" font-size="15" font-weight="900" text-anchor="middle">SALTWATER LOAF</text>
    </g>
    <g transform="translate(944 -6)">
      <rect width="88" height="256" rx="8" fill="#15803d"/>
      <text x="44" y="226" transform="rotate(-90 44 226)" fill="#f0fdf4" font-size="16" font-weight="900" text-anchor="middle">AGENDA 2030</text>
    </g>
    <rect x="-24" y="250" width="1100" height="18" rx="9" fill="#f7d77a"/>
  </g>
</svg>
